{"title":"Glastonbury 2016 - Rat Boy","uid":15435262,"size":308419325,"categoryP":"video","categoryS":"hd___tv_shows","magnet":"?xt=urn:btih:fbf122b1898b580ec0ab2733645e2e15f0e12096&amp;dn=Glastonbury+2016+-+Rat+Boy&amp;tr=udp%3A%2F%2Ftracker.leechers-paradise.org%3A6969&amp;tr=udp%3A%2F%2Fzer0day.ch%3A1337&amp;tr=udp%3A%2F%2Fopen.demonii.com%3A1337&amp;tr=udp%3A%2F%2Ftracker.coppersurfer.tk%3A6969&amp;tr=udp%3A%2F%2Fexodus.desync.com%3A6969","seeders":1,"leechers":0,"uploader":"RoaElson","files":2,"time":1469753764,"description":"Glastonbury 2016: Rat Boy\r\n\r\nHis first Glastonbury and he smashed it.\r\n\r\nMusic played:\r\n\r\nWasteman \r\nScum \r\nSign On \r\nFake ID \r\nLeft For Dead \r\n\r\nFirst broadcast: 24 June 2016 \r\nDuration: 18 minutes \r\n\r\nMedia info:-\r\n\r\nGeneral\r\nFormat : MPEG-4\r\nFormat profile : Base Media\r\nCodec ID : isom (isom/iso2/avc1/mp41)\r\nFile size : 293 MiB\r\nDuration : 17mn 9s\r\nOverall bit rate mode : Variable\r\nOverall bit rate : 2 388 Kbps\r\n\r\n\r\nVideo\r\nID : 1\r\nFormat : AVC\r\nFormat/Info : Advanced Video Codec\r\nFormat profile :   \r\nFormat settings, CABAC : Yes\r\nFormat settings, ReFrames : 2 frames\r\nCodec ID : avc1\r\nCodec ID/Info : Advanced Video Coding\r\nDuration : 17mn 9s\r\nBit rate mode : Variable\r\nBit rate : 2 289 Kbps\r\nMaximum bit rate : 3 500 Kbps\r\nWidth : 1 280 pixels\r\nHeight : 720 pixels\r\nDisplay aspect ratio : 16:9\r\nFrame rate mode : Constant\r\nFrame rate : 25.000 fps\r\nColor space : YUV\r\nChroma subsampling : 4:2:0\r\nBit depth : 8 bits\r\nScan type : Progressive\r\nBits/(Pixel*Frame) : 0.099\r\nStream size : 281 MiB (96%)\r\n\r\nAudio\r\nID : 2\r\nFormat : AAC\r\nFormat/Info : Advanced Audio Codec\r\nFormat profile : LC\r\nCodec ID : 40\r\nDuration : 17mn 9s\r\nBit rate mode : Constant\r\nBit rate : 93.5 Kbps\r\nChannel(s) : 2 channels\r\nChannel positions : Front: L R\r\nSampling rate : 48.0 KHz\r\nFrame rate : 46.875 fps (1024 spf)\r\nCompression mode : Lossy\r\nStream size : 11.5 MiB (4%)","torrent":{"xt":"urn:btih:fbf122b1898b580ec0ab2733645e2e15f0e12096","amp;dn":"Glastonbury+2016+-+Rat+Boy","amp;tr":["udp%3A%2F%2Ftracker.leechers-paradise.org%3A6969","udp%3A%2F%2Fzer0day.ch%3A1337","udp%3A%2F%2Fopen.demonii.com%3A1337","udp%3A%2F%2Ftracker.coppersurfer.tk%3A6969","udp%3A%2F%2Fexodus.desync.com%3A6969"],"infoHash":"fbf122b1898b580ec0ab2733645e2e15f0e12096","infoHashBuffer":{"type":"Buffer","data":[251,241,34,177,137,139,88,14,192,171,39,51,100,94,46,21,240,225,32,150]},"announce":[],"urlList":[]}}